<mxfile host="Electron" modified="2024-01-28T23:33:58.360Z" agent="Mozilla/5.0 (Windows NT 10.0; Win64; x64) AppleWebKit/537.36 (KHTML, like Gecko) draw.io/23.0.2 Chrome/120.0.6099.109 Electron/28.1.0 Safari/537.36" etag="RL5oshqb6AQWJA3MBa_Y" version="23.0.2" type="device">
  <diagram id="X9wbM6Hu9-JiakdXov9X" name="ColorGPT">
    <mxGraphModel dx="1050" dy="725" grid="1" gridSize="10" guides="1" tooltips="1" connect="1" arrows="1" fold="1" page="1" pageScale="1" pageWidth="827" pageHeight="1169" math="0" shadow="0">
      <root>
        <mxCell id="0" />
        <mxCell id="1" parent="0" />
        <mxCell id="1NBij0KzCAs1yf0BY4QA-1" value="" style="strokeWidth=1;shadow=0;dashed=0;align=center;html=1;shape=mxgraph.mockup.containers.rrect;rSize=0;strokeColor=#666666;" parent="1" vertex="1">
          <mxGeometry x="120" y="120" width="281.82" height="620" as="geometry" />
        </mxCell>
        <mxCell id="1NBij0KzCAs1yf0BY4QA-2" value="ColorGPT" style="strokeColor=inherit;fillColor=inherit;gradientColor=inherit;strokeWidth=1;shadow=0;dashed=0;align=center;html=1;shape=mxgraph.mockup.containers.rrect;rSize=0;fontSize=17;fontColor=#666666;fontStyle=1;resizeWidth=1;whiteSpace=wrap;" parent="1NBij0KzCAs1yf0BY4QA-1" vertex="1">
          <mxGeometry width="281.82" height="40" relative="1" as="geometry" />
        </mxCell>
        <mxCell id="1NBij0KzCAs1yf0BY4QA-4" value="" style="strokeWidth=1;shadow=0;dashed=0;align=center;html=1;shape=mxgraph.mockup.containers.rrect;rSize=0;fontSize=17;fontColor=#CCCCCC;fontStyle=1;fillColor=#FFFFFF;strokeColor=none;resizeWidth=1;whiteSpace=wrap;" parent="1NBij0KzCAs1yf0BY4QA-1" vertex="1">
          <mxGeometry width="280" height="410" relative="1" as="geometry">
            <mxPoint x="1" y="110" as="offset" />
          </mxGeometry>
        </mxCell>
        <mxCell id="1NBij0KzCAs1yf0BY4QA-5" value="" style="strokeColor=inherit;fillColor=inherit;gradientColor=inherit;strokeWidth=1;shadow=0;dashed=0;align=center;html=1;shape=mxgraph.mockup.containers.rrect;rSize=0;fontSize=17;fontColor=#666666;fontStyle=1;resizeWidth=1;whiteSpace=wrap;" parent="1NBij0KzCAs1yf0BY4QA-1" vertex="1">
          <mxGeometry y="1" width="281.82" height="98" relative="1" as="geometry">
            <mxPoint y="-98" as="offset" />
          </mxGeometry>
        </mxCell>
        <mxCell id="rGYIj3j2jTkYsgVUj6PN-1" value="" style="rounded=1;whiteSpace=wrap;html=1;" parent="1NBij0KzCAs1yf0BY4QA-1" vertex="1">
          <mxGeometry x="20" y="540" width="190.91" height="60" as="geometry" />
        </mxCell>
        <mxCell id="WdAeyYs-5imO6ZH4Zshn-1" value="Send" style="rounded=1;whiteSpace=wrap;html=1;" vertex="1" parent="1NBij0KzCAs1yf0BY4QA-1">
          <mxGeometry x="220" y="557.5" width="50" height="25" as="geometry" />
        </mxCell>
        <mxCell id="rGYIj3j2jTkYsgVUj6PN-6" value="" style="shape=table;startSize=0;container=1;collapsible=0;childLayout=tableLayout;fontSize=16;strokeColor=#666666;" parent="1NBij0KzCAs1yf0BY4QA-1" vertex="1">
          <mxGeometry y="360" width="280" height="140" as="geometry" />
        </mxCell>
        <mxCell id="rGYIj3j2jTkYsgVUj6PN-7" value="" style="shape=tableRow;horizontal=0;startSize=0;swimlaneHead=0;swimlaneBody=0;strokeColor=inherit;top=0;left=0;bottom=0;right=0;collapsible=0;dropTarget=0;fillColor=none;points=[[0,0.5],[1,0.5]];portConstraint=eastwest;fontSize=16;" parent="rGYIj3j2jTkYsgVUj6PN-6" vertex="1">
          <mxGeometry width="280" height="70" as="geometry" />
        </mxCell>
        <mxCell id="rGYIj3j2jTkYsgVUj6PN-8" value="" style="shape=partialRectangle;html=1;whiteSpace=wrap;connectable=0;strokeColor=#d79b00;overflow=hidden;fillColor=#ffe6cc;top=0;left=0;bottom=0;right=0;pointerEvents=1;fontSize=16;" parent="rGYIj3j2jTkYsgVUj6PN-7" vertex="1">
          <mxGeometry width="93" height="70" as="geometry">
            <mxRectangle width="93" height="70" as="alternateBounds" />
          </mxGeometry>
        </mxCell>
        <mxCell id="rGYIj3j2jTkYsgVUj6PN-9" value="" style="shape=partialRectangle;html=1;whiteSpace=wrap;connectable=0;strokeColor=#9673a6;overflow=hidden;fillColor=#e1d5e7;top=0;left=0;bottom=0;right=0;pointerEvents=1;fontSize=16;" parent="rGYIj3j2jTkYsgVUj6PN-7" vertex="1">
          <mxGeometry x="93" width="94" height="70" as="geometry">
            <mxRectangle width="94" height="70" as="alternateBounds" />
          </mxGeometry>
        </mxCell>
        <mxCell id="rGYIj3j2jTkYsgVUj6PN-10" value="" style="shape=partialRectangle;html=1;whiteSpace=wrap;connectable=0;strokeColor=#82b366;overflow=hidden;fillColor=#d5e8d4;top=0;left=0;bottom=0;right=0;pointerEvents=1;fontSize=16;" parent="rGYIj3j2jTkYsgVUj6PN-7" vertex="1">
          <mxGeometry x="187" width="93" height="70" as="geometry">
            <mxRectangle width="93" height="70" as="alternateBounds" />
          </mxGeometry>
        </mxCell>
        <mxCell id="rGYIj3j2jTkYsgVUj6PN-11" value="" style="shape=tableRow;horizontal=0;startSize=0;swimlaneHead=0;swimlaneBody=0;strokeColor=inherit;top=0;left=0;bottom=0;right=0;collapsible=0;dropTarget=0;fillColor=none;points=[[0,0.5],[1,0.5]];portConstraint=eastwest;fontSize=16;" parent="rGYIj3j2jTkYsgVUj6PN-6" vertex="1">
          <mxGeometry y="70" width="280" height="70" as="geometry" />
        </mxCell>
        <mxCell id="rGYIj3j2jTkYsgVUj6PN-12" value="" style="shape=partialRectangle;html=1;whiteSpace=wrap;connectable=0;strokeColor=#6c8ebf;overflow=hidden;fillColor=#dae8fc;top=0;left=0;bottom=0;right=0;pointerEvents=1;fontSize=16;" parent="rGYIj3j2jTkYsgVUj6PN-11" vertex="1">
          <mxGeometry width="93" height="70" as="geometry">
            <mxRectangle width="93" height="70" as="alternateBounds" />
          </mxGeometry>
        </mxCell>
        <mxCell id="rGYIj3j2jTkYsgVUj6PN-13" value="" style="shape=partialRectangle;html=1;whiteSpace=wrap;connectable=0;strokeColor=#b85450;overflow=hidden;fillColor=#f8cecc;top=0;left=0;bottom=0;right=0;pointerEvents=1;fontSize=16;" parent="rGYIj3j2jTkYsgVUj6PN-11" vertex="1">
          <mxGeometry x="93" width="94" height="70" as="geometry">
            <mxRectangle width="94" height="70" as="alternateBounds" />
          </mxGeometry>
        </mxCell>
        <mxCell id="rGYIj3j2jTkYsgVUj6PN-14" value="" style="shape=partialRectangle;html=1;whiteSpace=wrap;connectable=0;strokeColor=inherit;overflow=hidden;fillColor=none;top=0;left=0;bottom=0;right=0;pointerEvents=1;fontSize=16;" parent="rGYIj3j2jTkYsgVUj6PN-11" vertex="1">
          <mxGeometry x="187" width="93" height="70" as="geometry">
            <mxRectangle width="93" height="70" as="alternateBounds" />
          </mxGeometry>
        </mxCell>
        <mxCell id="GSgqLFtSDljdTfo7j7mz-17" value="NoÃ«l" style="rounded=1;whiteSpace=wrap;html=1;" vertex="1" parent="1NBij0KzCAs1yf0BY4QA-1">
          <mxGeometry x="20" y="300" width="100" height="35" as="geometry" />
        </mxCell>
        <mxCell id="GSgqLFtSDljdTfo7j7mz-18" value="Halloween" style="rounded=1;whiteSpace=wrap;html=1;" vertex="1" parent="1NBij0KzCAs1yf0BY4QA-1">
          <mxGeometry x="170" y="300" width="100" height="35" as="geometry" />
        </mxCell>
      </root>
    </mxGraphModel>
  </diagram>
</mxfile>
